<svg width="40" height="42" viewBox="0 0 40 42" fill="none" xmlns="http://www.w3.org/2000/svg">
<g clip-path="url(#clip0_11_1497)">
<ellipse cx="20" cy="21.0846" rx="20" ry="20.4834" stroke="#E3CDB1"/>
<mask id="mask0_11_1497" style="mask-type:luminance" maskUnits="userSpaceOnUse" x="11" y="11" width="18" height="20">
<path fill-rule="evenodd" clip-rule="evenodd" d="M11.1113 30.1811H28.882V11.9808H11.1113V30.1811Z" fill="white"/>
</mask>
<g mask="url(#mask0_11_1497)">
<path fill-rule="evenodd" clip-rule="evenodd" d="M27.9013 11.9808H12.0921C11.5504 11.9808 11.1113 12.4305 11.1113 12.9853V29.1766C11.1113 29.7313 11.5504 30.1811 12.0921 30.1811H20.6033V23.133H18.2874V20.3862H20.6033V18.3605C20.6033 16.0098 22.0051 14.7298 24.0527 14.7298C25.0335 14.7298 25.8765 14.8045 26.1221 14.8379V17.2946L24.702 17.2953C23.5885 17.2953 23.3728 17.8372 23.3728 18.6325V20.3862H26.0286L25.6828 23.133H23.3728V30.1811H27.9013C28.4429 30.1811 28.882 29.7313 28.882 29.1766V12.9853C28.882 12.4305 28.4429 11.9808 27.9013 11.9808Z" fill="#E3CDB1"/>
</g>
</g>
<defs>
<clipPath id="clip0_11_1497">
<rect width="40" height="40.9668" fill="white" transform="translate(0 0.601196)"/>
</clipPath>
</defs>
</svg>
