<svg width="24" height="22" viewBox="0 0 24 22" fill="none" xmlns="http://www.w3.org/2000/svg">
<g id="Level-Icon" clip-path="url(#clip0_11_102)">
<path id="Stroke 2399" fill-rule="evenodd" clip-rule="evenodd" d="M14.712 3.77286C13.6394 3.40177 12.4692 3.97009 12.0981 5.0437L11.6437 6.35622L10.688 4.26188C9.28294 1.18441 6.50641 -0.564266 3.42691 0.840776C0.34944 2.24683 -0.149746 5.489 1.2553 8.56749L6.14752 19.2863L15.5802 14.9807L14.5219 12.6626L16.0713 6.02886C16.2227 5.04777 15.6514 4.09819 14.712 3.77286V3.77286Z" stroke="#E3CDB1" stroke-width="1.5" stroke-linecap="round" stroke-linejoin="round"/>
<path id="Stroke 2400" fill-rule="evenodd" clip-rule="evenodd" d="M6.14771 19.286L15.5794 14.9814L16.7546 17.5536L7.32196 21.8582L6.14771 19.286V19.286Z" stroke="#E3CDB1" stroke-width="1.5" stroke-linecap="round" stroke-linejoin="round"/>
<path id="Stroke 2401" d="M22.3201 14.981L23.4944 17.5531L14.0617 21.8587L12.8875 19.2855" stroke="#E3CDB1" stroke-width="1.5" stroke-linecap="round" stroke-linejoin="round"/>
<path id="Stroke 2402" d="M18.5353 16.7086L22.3204 14.9813L21.2621 12.6633L22.8115 6.02846C22.9619 5.04737 22.3906 4.09882 21.4522 3.77246C20.3796 3.40138 19.2094 3.97071 18.8383 5.0433L18.3839 6.35583L17.4272 4.2625C16.0221 1.18402 13.2456 -0.563644 10.1681 0.841397C9.65674 1.07421 9.21958 1.3599 8.84747 1.68727" stroke="#E3CDB1" stroke-width="1.5" stroke-linecap="round" stroke-linejoin="round"/>
</g>
<defs>
<clipPath id="clip0_11_102">
<rect width="24" height="22" fill="white"/>
</clipPath>
</defs>
</svg>
