<svg width="133" height="25" viewBox="0 0 133 25" fill="none" xmlns="http://www.w3.org/2000/svg">
<g clip-path="url(#clip0_3412_225)">
<path fill-rule="evenodd" clip-rule="evenodd" d="M8.18691 19.9722L8.01772 20.3611C6.83341 23.3611 5.7055 24.2777 4.3802 24.4166C4.74677 24.0833 5.08514 23.5277 5.08514 22.8055C5.08514 21.7777 4.2956 20.9999 3.30868 20.9999C2.12437 20.9999 1.44762 21.9444 1.44762 22.8611C1.44762 24.1666 2.40635 24.9999 4.04182 24.9999C5.6491 24.9999 7.14359 24.0277 8.52529 20.7222L13.4599 9.0555C14.0239 7.66661 14.9544 7.0555 16.0823 6.94439V6.61106H10.6401V6.94439C12.6986 7.22217 13.1497 7.88883 12.3884 9.77772L9.93518 15.8888L6.69242 8.44439C6.26946 7.47217 6.55143 7.08328 8.15871 6.94439V6.61106H0.404297V6.94439C1.78599 7.13883 2.20896 7.44439 2.82931 8.77772L8.18691 19.9722ZM21.2143 19.6666C23.019 19.6666 24.5699 18.6666 25.7542 16.8055V19.4444H31.3938V19.1111C29.8147 19.0555 29.4481 18.8333 29.4481 18.0555V6.5555L23.7239 6.66661V6.99995C25.2748 7.0555 25.6978 7.52772 25.6978 8.36106V16.1944C24.9646 17.3333 24.2033 17.9444 23.1882 17.9444C21.7501 17.9444 21.1297 16.9999 21.1297 15.2777V6.5555L15.4338 6.66661V6.99995C17.041 7.02772 17.3794 7.52772 17.3794 8.36106V15.6111C17.3794 18.3055 18.8457 19.6666 21.2143 19.6666ZM40.8401 19.4444H47.523V19.1111C46.3386 19.0833 46.0285 18.8611 46.0285 18.0833V10.3888C46.0285 10.2777 46.0285 10.1388 46.0003 9.94439C46.818 8.74995 47.7767 8.11106 48.5099 8.11106C49.9198 8.11106 50.4555 9.08328 50.4555 10.7499V18.0833C50.4555 18.8611 50.2018 19.0833 49.0738 19.1111V19.4444H56.1515V19.1111C54.516 19.0833 54.2058 18.8611 54.2058 18.0833V10.4722C54.2058 7.86106 53.0215 6.47217 50.6529 6.47217C48.9046 6.47217 47.1 7.63883 45.9439 9.36106C45.6337 7.47217 44.4776 6.47217 42.5037 6.47217C40.6427 6.47217 39.0354 7.5555 37.8229 9.33328V6.5555L32.1551 6.8055V7.13883C33.7906 7.16661 34.129 7.69439 34.129 8.52772V18.0833C34.129 18.8611 33.7906 19.0833 32.1551 19.1111V19.4444H39.2328V19.1111C38.1049 19.0833 37.8793 18.8611 37.8793 18.0833V9.94439C38.6124 8.83328 39.2328 8.11106 40.2479 8.11106C41.6578 8.11106 42.2781 9.08328 42.2781 10.7499V18.0833C42.2781 18.8611 41.9962 19.0833 40.8401 19.1111V19.4444ZM84.6032 19.9722L84.434 20.3611C83.2497 23.3611 82.1217 24.2777 80.7964 24.4166C81.163 24.0833 81.5014 23.5277 81.5014 22.8055C81.5014 21.7777 80.7119 20.9999 79.7249 20.9999C78.5406 20.9999 77.8639 21.9444 77.8639 22.8611C77.8639 24.1666 78.8226 24.9999 80.4581 24.9999C82.0654 24.9999 83.5598 24.0277 84.9415 20.7222L89.8762 9.0555C90.4401 7.66661 91.3707 7.0555 92.4986 6.94439V6.61106H87.0564V6.94439C89.1148 7.22217 89.566 7.88883 88.8046 9.77772L86.3514 15.8888L83.1087 8.44439C82.6857 7.47217 82.9677 7.08328 84.575 6.94439V6.61106H76.8205V6.94439C78.2022 7.13883 78.6252 7.44439 79.2456 8.77772L84.6032 19.9722ZM97.6306 19.6666C99.4352 19.6666 100.986 18.6666 102.17 16.8055V19.4444H107.81V19.1111C106.231 19.0555 105.864 18.8333 105.864 18.0555V6.5555L100.14 6.66661V6.99995C101.691 7.0555 102.114 7.52772 102.114 8.36106V16.1944C101.381 17.3333 100.62 17.9444 99.6044 17.9444C98.1663 17.9444 97.546 16.9999 97.546 15.2777V6.5555L91.85 6.66661V6.99995C93.4573 7.02772 93.7957 7.52772 93.7957 8.36106V15.6111C93.7957 18.3055 95.262 19.6666 97.6306 19.6666ZM117.256 19.4444H123.939V19.1111C122.755 19.0833 122.445 18.8611 122.445 18.0833V10.3888C122.445 10.2777 122.445 10.1388 122.417 9.94439C123.234 8.74995 124.193 8.11106 124.926 8.11106C126.336 8.11106 126.872 9.08328 126.872 10.7499V18.0833C126.872 18.8611 126.618 19.0833 125.49 19.1111V19.4444H132.568V19.1111C130.932 19.0833 130.622 18.8611 130.622 18.0833V10.4722C130.622 7.86106 129.438 6.47217 127.069 6.47217C125.321 6.47217 123.516 7.63883 122.36 9.36106C122.05 7.47217 120.894 6.47217 118.92 6.47217C117.059 6.47217 115.452 7.5555 114.239 9.33328V6.5555L108.571 6.8055V7.13883C110.207 7.16661 110.545 7.69439 110.545 8.52772V18.0833C110.545 18.8611 110.207 19.0833 108.571 19.1111V19.4444H115.649V19.1111C114.521 19.0833 114.296 18.8611 114.296 18.0833V9.94439C115.029 8.83328 115.649 8.11106 116.664 8.11106C118.074 8.11106 118.694 9.08328 118.694 10.7499V18.0833C118.694 18.8611 118.412 19.0833 117.256 19.1111V19.4444Z" fill="black"/>
<g clip-path="url(#clip1_3412_225)">
<path fill-rule="evenodd" clip-rule="evenodd" d="M65.598 0.370361C68.9241 0.370361 71.1154 2.21425 71.1154 4.66666C71.1154 6.56032 69.8409 8.06629 67.299 9.21497C68.5676 10.3046 69.6535 11.4301 70.4211 12.4804C71.6072 10.0434 73.2341 8.75925 74.8751 8.75925C76.5992 8.75925 77.7701 9.85457 77.7701 11.4444C77.7701 12.8182 76.6791 13.9352 75.2981 13.9352C74.0754 13.9352 73.1022 13.0418 72.9358 11.8819C72.4102 12.333 71.9018 12.9862 71.4121 13.8722C73.0643 16.4995 74.1327 17.3426 75.3545 17.3426C75.8272 17.3426 76.1449 17.2198 76.9238 16.7L77.2649 16.4724L77.5386 16.7757L77.7642 17.0257L78.0435 17.3352L77.7623 17.643C76.1114 19.4499 74.4786 20.3796 72.7885 20.3796C70.8931 20.3796 69.7457 19.6693 68.4377 17.618C67.0004 19.4273 65.0969 20.3796 62.6373 20.3796C59.1977 20.3796 56.8379 18.2583 56.8379 15.2222C56.8379 12.7218 58.4097 10.8661 61.5083 9.69392C60.1961 8.29034 59.6295 7.04834 59.6295 5.55555C59.6295 2.5095 62.0057 0.370361 65.598 0.370361ZM70.8079 13.0458C70.7729 13.1039 70.738 13.163 70.7033 13.2231C70.6192 13.3685 70.536 13.5194 70.4537 13.676L70.3322 13.9072L70.4696 14.1296C70.5228 14.2157 70.5756 14.3003 70.628 14.3834L70.5867 14.4845L70.1008 13.6815C69.319 12.3896 67.8697 10.8696 66.1161 9.43999L65.5053 8.94203L66.242 8.65319C68.9358 7.59684 70.1755 6.28268 70.1755 4.66666C70.1755 2.76085 68.4349 1.29629 65.598 1.29629C62.5068 1.29629 60.5694 3.04042 60.5694 5.55555C60.5694 6.95205 61.1675 8.09082 62.6846 9.55858L63.2357 10.0917L62.5017 10.3288C59.292 11.3655 57.7778 12.9898 57.7778 15.2222C57.7778 17.727 59.6986 19.4537 62.6373 19.4537C65.0228 19.4537 66.7713 18.4595 68.0832 16.521L68.5038 15.8994L68.8817 16.5471C70.2002 18.8071 71.0974 19.4537 72.7885 19.4537C73.7661 19.4537 74.7559 19.0526 75.7791 18.2399C76.2747 18.1678 76.7289 17.9485 77.4509 17.4666L77.3794 17.3627L77.4129 17.3333L77.2754 17.2114L77.1874 17.0833L77.159 17.1082L77.0636 17.0236C76.6288 17.4996 76.2011 17.9048 75.7791 18.2399C75.6428 18.2598 75.5035 18.2685 75.3545 18.2685C73.7375 18.2685 72.4306 17.2414 70.628 14.3834L70.9405 13.617C71.3524 12.6072 71.8258 11.7934 72.3301 11.174C72.5881 10.9537 72.8531 10.7704 73.1254 10.6224L73.3914 10.4778L73.6344 10.6574L73.7472 10.7407L74.0182 10.9409L73.9111 11.2575C73.8777 11.3561 73.8677 11.3881 73.8606 11.4199C73.8537 11.4505 73.8506 11.4798 73.8506 11.5278C73.8506 12.3536 74.4836 13.0093 75.2981 13.0093C76.1517 13.0093 76.8302 12.3147 76.8302 11.4444C76.8302 10.377 76.0906 9.68518 74.8751 9.68518C74.0307 9.68518 73.1404 10.1789 72.3301 11.174C71.7929 11.6327 71.2861 12.2518 70.8079 13.0458Z" fill="black"/>
<path fill-rule="evenodd" clip-rule="evenodd" d="M62.4618 9.90738L62.7738 9.62793L63.0895 9.90338C65.1847 11.7314 67.5088 14.3113 68.6204 16.0906L68.7926 16.3664L68.5888 16.6204C67.5677 17.8926 66.2885 18.5462 64.8646 18.5462C62.2671 18.5462 60.4751 16.8436 60.4751 14.2499C60.4751 12.5124 61.1199 11.1091 62.4618 9.90738ZM67.8515 16.0461L67.8199 16.5759C67.763 16.4849 67.7026 16.3914 67.639 16.2959C67.7109 16.2163 67.7817 16.133 67.8515 16.0461ZM62.7895 10.883C61.8518 11.8385 61.415 12.9134 61.415 14.2499C61.415 16.3246 62.7788 17.6203 64.8646 17.6203C65.8984 17.6203 66.8359 17.1847 67.639 16.2959C66.5815 14.7079 64.6226 12.5323 62.7895 10.883ZM62.7895 10.883C62.8857 10.7849 62.9872 10.6882 63.0941 10.5925L62.4663 10.5965C62.5735 10.69 62.6813 10.7856 62.7895 10.883Z" fill="black"/>
<path fill-rule="evenodd" clip-rule="evenodd" d="M66.162 8.90299L65.831 9.18994L65.5192 8.8828C63.4337 6.82834 62.731 5.61094 62.731 3.99988C62.731 2.08687 63.8103 0.814697 65.4286 0.814697C67.1863 0.814697 68.1825 2.12624 68.1825 4.27766C68.1825 6.33044 67.6352 7.62592 66.162 8.90299ZM65.4286 1.74062C64.3705 1.74062 63.6709 2.56518 63.6709 3.99988C63.6709 5.23872 64.1922 6.21292 65.8654 7.90998C65.7639 8.00924 65.6559 8.10834 65.5411 8.20789L66.1838 8.22807C66.0733 8.11922 65.9672 8.01326 65.8654 7.90998C66.8795 6.91825 67.2426 5.91038 67.2426 4.27766C67.2426 2.58893 66.5982 1.74062 65.4286 1.74062Z" fill="black"/>
</g>
</g>
<defs>
<clipPath id="clip0_3412_225">
<rect width="133" height="25" fill="white"/>
</clipPath>
<clipPath id="clip1_3412_225">
<rect width="22" height="21" fill="white" transform="translate(56.396)"/>
</clipPath>
</defs>
</svg>
