<svg width="25" height="21" viewBox="0 0 25 21" fill="none" xmlns="http://www.w3.org/2000/svg">
<g id="Servings-Icon" clip-path="url(#clip0_11_115)">
<path id="Stroke 2503" d="M20.902 13.5H23.902C23.902 5.5 22.502 0 21.121 0H20.902V20.5" stroke="#E3CDB1" stroke-width="1.5" stroke-linecap="round" stroke-linejoin="round"/>
<path id="Stroke 2504" d="M0.902039 1V5C0.902039 6.657 2.24504 8 3.90204 8C5.55804 8 6.90204 6.657 6.90204 5V1" stroke="#E3CDB1" stroke-width="1.5" stroke-linecap="round" stroke-linejoin="round"/>
<path id="Stroke 2505" d="M3.40204 1V20.5" stroke="#E3CDB1" stroke-width="1.5" stroke-linecap="round" stroke-linejoin="round"/>
<path id="Stroke 2506" fill-rule="evenodd" clip-rule="evenodd" d="M18.902 14C18.902 17.59 15.992 20.5 12.402 20.5C8.81204 20.5 5.90204 17.59 5.90204 14C5.90204 10.41 8.81204 7.5 12.402 7.5C15.992 7.5 18.902 10.41 18.902 14V14Z" stroke="#E3CDB1" stroke-width="1.5" stroke-linejoin="round"/>
<path id="Stroke 2507" fill-rule="evenodd" clip-rule="evenodd" d="M12.402 17.4845C12.402 17.4845 15.772 15.0575 15.772 13.2595C15.772 11.1855 13.015 10.5305 12.402 13.0525C11.789 10.5305 9.03204 11.1855 9.03204 13.2595C9.03204 15.0575 12.402 17.4845 12.402 17.4845V17.4845Z" stroke="#E3CDB1" stroke-width="1.5" stroke-linejoin="round"/>
</g>
<defs>
<clipPath id="clip0_11_115">
<rect width="24" height="21" fill="white" transform="translate(0.402039)"/>
</clipPath>
</defs>
</svg>
