<svg width="40" height="42" viewBox="0 0 40 42" fill="none" xmlns="http://www.w3.org/2000/svg">
<g clip-path="url(#clip0_11_1494)">
<ellipse cx="20" cy="21.0846" rx="20" ry="20.4834" stroke="#E3CDB1"/>
<path fill-rule="evenodd" clip-rule="evenodd" d="M30.0811 15.9463C29.4282 16.2444 28.8781 16.2543 28.2942 15.9594C29.0465 15.4978 29.081 15.1734 29.3528 14.3011C28.6487 14.729 27.8683 15.0403 27.0383 15.2079C26.375 14.4834 25.4279 14.0292 24.3797 14.0292C22.3667 14.0292 20.7354 15.7015 20.7354 17.7615C20.7354 18.0539 20.7675 18.339 20.8292 18.6125C17.8009 18.4572 15.115 16.9714 13.3177 14.7126C13.0042 15.2637 12.8245 15.9052 12.8245 16.5894C12.8245 17.8847 13.4685 19.0264 14.4453 19.6959C13.8479 19.6762 13.2865 19.5086 12.7956 19.2293C12.7948 19.2449 12.7948 19.2597 12.7948 19.2761C12.7948 21.0848 14.0508 22.5929 15.7189 22.9362C15.1848 23.0849 14.6218 23.1079 14.0724 23.0011C14.5368 24.4829 15.8825 25.5622 17.4769 25.5926C15.917 26.8443 13.9834 27.3659 12.0811 27.1376C13.6947 28.1963 15.609 28.814 17.6678 28.814C24.3708 28.814 28.036 23.1268 28.036 18.1944C28.036 18.0318 28.0336 17.8716 28.0263 17.7114C28.7377 17.1857 29.5926 16.6954 30.0811 15.9463Z" fill="#E3CDB1"/>
</g>
<defs>
<clipPath id="clip0_11_1494">
<rect width="40" height="40.9668" fill="white" transform="translate(0 0.601196)"/>
</clipPath>
</defs>
</svg>
