<svg width="40" height="42" viewBox="0 0 40 42" fill="none" xmlns="http://www.w3.org/2000/svg">
<g clip-path="url(#clip0_11_1487)">
<ellipse cx="20" cy="21.0846" rx="20" ry="20.4834" stroke="#E3CDB1"/>
<mask id="mask0_11_1487" style="mask-type:luminance" maskUnits="userSpaceOnUse" x="9" y="12" width="23" height="18">
<path fill-rule="evenodd" clip-rule="evenodd" d="M31.3275 21.09V29.2318H9.45996V21.09V12.9481H31.3275V21.09Z" fill="white"/>
</mask>
<g mask="url(#mask0_11_1487)">
<path fill-rule="evenodd" clip-rule="evenodd" d="M18.6017 23.1461L18.6008 17.7915L23.4645 20.4781L18.6017 23.1461ZM29.2802 16.8639C29.2802 16.8639 29.1043 15.5506 28.5646 14.9723C27.8802 14.2132 27.1129 14.2095 26.7611 14.1651C24.2423 13.9723 20.4639 13.9723 20.4639 13.9723H20.456C20.456 13.9723 16.6777 13.9723 14.1588 14.1651C13.807 14.2095 13.04 14.2132 12.3553 14.9723C11.8156 15.5506 11.64 16.8639 11.64 16.8639C11.64 16.8639 11.46 18.4061 11.46 19.9483V21.3941C11.46 22.9362 11.64 24.4784 11.64 24.4784C11.64 24.4784 11.8156 25.7917 12.3553 26.37C13.04 27.1291 13.9394 27.1051 14.34 27.1846C15.7801 27.3308 20.46 27.3761 20.46 27.3761C20.46 27.3761 24.2423 27.37 26.7611 27.1773C27.1129 27.1328 27.8802 27.1291 28.5646 26.37C29.1043 25.7917 29.2802 24.4784 29.2802 24.4784C29.2802 24.4784 29.46 22.9362 29.46 21.3941V19.9483C29.46 18.4061 29.2802 16.8639 29.2802 16.8639Z" fill="#E3CDB1"/>
</g>
</g>
<defs>
<clipPath id="clip0_11_1487">
<rect width="40" height="40.9668" fill="white" transform="translate(0 0.601196)"/>
</clipPath>
</defs>
</svg>
